# xmcd
#
# Track frame offsets:
#	150
#	3035
#	24299
#	44039
#	89123
#	105892
#	138510
#	164878
#	187194
#	205493
#	216790
#	221230
#	227289
#	250466
#	268175
#	281820
#
# Disc length: 4055 seconds
#
# Revision: 0
# Processed by: cddbd v1.5.2PL0 Copyright (c) Steve Scherf et al.
# Submitted via: audiograbber 1.83.01
#
DISCID=f80fd510
DTITLE=Various Artist - Soul Classics, The Sound Philadelphia, CD 1 (Live Reco
DTITLE=rdings)
DYEAR=2004
DGENRE=Blues
TTITLE0=N. N. - Introduction
TTITLE1=Harold Melvin and The Blue Notes - The Love I Lost (live)
TTITLE2=Harold Melvin and The Blue Notes - If You Don't Know Me By Now (live)
TTITLE3=Harold Melvin and The Blue Notes - Hope That We Can Be Together Soon (liv
TTITLE3=e)
TTITLE4=Harold Melvin and The Blue Notes - Don't Leave Me This Way (live)
TTITLE5=Harold Melvin and The Blue Notes - Wake Up Everybody (live)
TTITLE6=Harold Melvin and The Blue Notes - Me And Mrs. Jones (live)
TTITLE7=The Three Degrees Orchestra - TSOP (The Sound Of Philadelphia), live
TTITLE8=The Three Degrees - My Simple Heart (live)
TTITLE9=The Three Degrees - Gee Baby I'm Sorry (live)
TTITLE10=The Three Degrees - Take Good Care Of Yourself (live)
TTITLE11=The Three Degrees - The Runner (live)
TTITLE12=The Three Degrees - A Woman In Love (live)
TTITLE13=The Three Degrees - Dirty Ol' Man (live)
TTITLE14=The Three Degrees - When Will I See You Again (live)
TTITLE15=Ensemble - Love Train (live)
EXTD=
EXTT0=
EXTT1=
EXTT2=
EXTT3=
EXTT4=
EXTT5=
EXTT6=
EXTT7=
EXTT8=
EXTT9=
EXTT10=
EXTT11=
EXTT12=
EXTT13=
EXTT14=
EXTT15=
PLAYORDER=
